<?xml version="1.0" encoding="UTF-8" standalone="no"?>
<svg
   xmlns:dc="http://purl.org/dc/elements/1.1/"
   xmlns:cc="http://creativecommons.org/ns#"
   xmlns:rdf="http://www.w3.org/1999/02/22-rdf-syntax-ns#"
   xmlns:svg="http://www.w3.org/2000/svg"
   xmlns="http://www.w3.org/2000/svg"
   width="512"
   height="512"
   viewBox="0 0 512 512"
   version="1.1"
   id="svg8">
  <defs
     id="defs2" />
  <metadata
     id="metadata5">
    <rdf:RDF>
      <cc:Work
         rdf:about="">
        <dc:format>image/svg+xml</dc:format>
        <dc:type
           rdf:resource="http://purl.org/dc/dcmitype/StillImage" />
        <dc:title></dc:title>
      </cc:Work>
    </rdf:RDF>
  </metadata>
  <g
     id="layer1"
     transform="translate(0,-161.53331)">
    <circle
       style="opacity:1;fill:#72dae1;fill-opacity:1;stroke:none;stroke-width:3.16583943;stroke-linecap:round;stroke-linejoin:round;stroke-miterlimit:4;stroke-dasharray:none;stroke-dashoffset:0;stroke-opacity:1"
       id="path892"
       cx="177.17337"
       cy="376.70297"
       r="170.15404" />
    <path
       style="opacity:1;fill:#ffffff;fill-opacity:1;stroke:none;stroke-width:3.16583943;stroke-linecap:round;stroke-linejoin:round;stroke-miterlimit:4;stroke-dasharray:none;stroke-dashoffset:0;stroke-opacity:1"
       d="m 286.41181,503.3419 a 209.82122,53.311224 0 0 0 -209.821299,53.31062 209.82122,53.311224 0 0 0 209.821299,53.31071 209.82122,53.311224 0 0 0 47.91661,-1.47334 72.186252,44.61356 0 0 1 -0.14353,-2.49468 72.186252,44.61356 0 0 1 72.18795,-44.61251 72.186252,44.61356 0 0 1 61.91045,21.76726 209.82122,53.311224 0 0 0 27.94994,-26.49744 A 209.82122,53.311224 0 0 0 286.412,503.3419 Z"
       id="path874" />
    <path
       id="path872"
       d="m 141.46707,461.74501 c 0,0 5.70938,-3.32284 8.4278,-1.57945 0,0 -7.48452,4.34865 -8.4278,1.57945 z"
       style="fill:#3f3d56;fill-opacity:1;stroke:none;stroke-width:0.96835631px;stroke-linecap:butt;stroke-linejoin:miter;stroke-opacity:1" />
    <path
       style="fill:#3f3d56;fill-opacity:1;stroke:none;stroke-width:0.96835631px;stroke-linecap:butt;stroke-linejoin:miter;stroke-opacity:1"
       d="m 102.11537,245.28307 c 0,0 8.94193,-1.55896 8.52858,0.88649 0,0 -8.41313,2.0367 -8.52858,-0.88649 z"
       id="path870" />
    <path
       style="fill:#05671e;fill-opacity:1;stroke:none;stroke-width:0.96835631px;stroke-linecap:butt;stroke-linejoin:miter;stroke-opacity:1"
       d="m 142.58923,332.43525 c 0,0 -42.19267,-89.91879 -29.74237,-90.61049 12.45031,-0.69168 18.67544,7.95437 54.64296,4.49595 35.96752,-3.45841 60.52227,2.4209 94.06892,-7.60853 33.54665,-10.0294 49.80114,-2.76673 66.40155,-6.22514 16.60044,-3.45842 70.89758,-23.51722 80.58112,-6.22515 9.68353,17.29209 0.34574,14.17952 19.71293,56.37217 19.36717,42.19268 17.9838,37.35089 36.31337,74.0101 18.32964,36.65919 13.142,49.10949 18.32964,62.94317 5.1876,13.83364 3.11254,6.22512 -39.42595,9.68353 -42.53852,3.45841 -31.12576,31.12577 -100.29405,36.65923 -69.16836,5.53345 -49.80119,12.10442 -102.71496,0 -52.91376,-12.10447 -43.2411,0.47827 -84.73116,-3.45846 -26.72687,-2.5359 34.58415,-29.05066 -13.142,-130.03638"
       id="path826" />
    <path
       style="fill:#dbbd07;fill-opacity:1;stroke:none;stroke-width:0.44058818px;stroke-linecap:butt;stroke-linejoin:miter;stroke-opacity:1"
       d="m 160.93359,360.16728 c 0,0 19.58268,-19.21816 30.7092,-23.35546 11.12655,-4.13729 26.92625,-13.43477 32.4895,-21.17796 5.56322,-7.74313 1.33513,-11.7743 22.47558,-21.88274 21.14043,-10.1084 24.47836,-13.73069 36.49506,-24.67903 12.01663,-10.94839 17.57986,-13.57335 17.57986,-13.57335 0,0 37.83026,14.72866 46.73147,22.0558 8.90121,7.32715 24.47836,13.19552 41.16817,17.33729 16.6898,4.1417 25.59106,12.35895 34.4922,16.57065 8.90126,4.2117 14.01944,10.333 14.01944,10.333 0,0 -23.14314,22.87426 -41.61319,28.34911 -18.47005,5.47488 -52.29471,41.98762 -56.07769,43.22962 -3.78309,1.24206 -14.68707,18.0298 -30.4867,28.88501 -15.79969,10.85515 -4.0056,6.83905 -20.6954,-0.86322 -16.68981,-7.70219 -34.49221,-15.01299 -45.39623,-19.58811 -10.90399,-4.57521 -9.79137,-8.08215 -22.03057,-15.79257 -12.23915,-7.71041 -23.14315,-12.06306 -33.37958,-16.29456 -10.23639,-4.2315 -26.48112,-9.55348 -26.48112,-9.55348 z"
       id="path849" />
    <path
       style="opacity:1;fill:#395b9b;fill-opacity:1;stroke:none;stroke-width:3.16583896;stroke-linecap:round;stroke-linejoin:round;stroke-miterlimit:4;stroke-dasharray:none;stroke-dashoffset:0;stroke-opacity:1"
       d="m 344.90649,329.84143 c 0,6.20202 -1.12203,12.31931 -3.17413,18.12966 -1.9176,5.42951 -5.62555,10.1019 -9.01091,14.81401 -4.51954,6.29068 -9.22919,12.26956 -15.71285,16.52701 -2.4048,1.57905 -5.77503,2.37726 -8.37976,3.59524 -4.70799,2.20147 -8.85551,4.38847 -14.04227,5.20837 -4.67629,0.73921 -8.95895,-1.62849 -13.25492,-2.14288 -10.56876,-1.26542 -19.98255,-3.66927 -26.52739,-11.07121 -3.52528,-3.98698 -4.94418,-8.83684 -6.7553,-14.14388 -1.58232,-4.63679 -3.78233,-9.59367 -3.78233,-15.00761 0,-7.84285 4.11746,-14.57206 7.31784,-21.69461 2.61681,-5.8236 3.85041,-12.23439 8.13516,-17.03033 4.88143,-5.46384 11.68587,-8.63408 18.14323,-12.08197 5.5065,-2.9402 10.49376,-6.4826 16.72371,-7.4674 27.79089,-4.39307 50.31992,14.57467 50.31992,42.3656 z"
       id="path856" />
    <path
       style="fill:#ffffff;fill-opacity:1;stroke:none;stroke-width:0.38704956px;stroke-linecap:butt;stroke-linejoin:miter;stroke-opacity:1"
       d="m 287.19664,316.44155 c -8.39686,-0.0589 -14.64365,1.60643 -25.26994,5.13494 -4.68106,1.55439 -8.00406,2.58652 -10.78047,3.42328 -1.27753,2.76844 -2.63882,5.49322 -3.82803,8.25184 4.91094,-2.04116 13.52886,-5.21976 22.69014,-6.64042 13.99056,-2.16958 24.91855,-2.1559 38.77399,-0.78491 11.31964,1.12011 29.23192,8.17562 35.67408,10.82592 0.29498,-2.25142 0.45,-4.52508 0.45,-6.81064 0,-0.50491 -0.0251,-1.00082 -0.0374,-1.49982 -23.21114,-9.88682 -34.67352,-9.73117 -48.31567,-11.27228 -3.51844,-0.39743 -6.55744,-0.60831 -9.35637,-0.62791 z"
       id="path859" />
    <path
       style="fill:#000000;fill-opacity:0.19665276;stroke:none;stroke-width:0.96835631px;stroke-linecap:butt;stroke-linejoin:miter;stroke-opacity:1"
       d="m 320.84893,233.37853 c -3.16473,0.1835 -6.41441,0.14027 -9.84808,0.034 2.43585,6.38904 10.20656,32.31617 -11.87182,58.64039 -25.4329,30.32383 -33.01488,20.78562 -33.01488,20.78562 0,0 5.37995,19.07553 35.94833,-18.34014 24.20281,-29.62424 21.12067,-52.74828 18.78645,-61.11993 z m -206.96536,15.01709 c 0,0 108.24896,90.26459 131.42035,145.25342 23.17139,54.98879 42.19371,35.96758 32.85599,2.42089 -9.33769,-33.54658 -26.63029,-56.02686 -56.37266,-78.16072 -29.7424,-22.13386 -16.6015,-33.89192 -107.90368,-69.51359 z m 230.67689,13.8331 c 12.7961,37.35089 -48.41784,79.88941 -48.41784,79.88941 76.08514,-32.50912 48.41784,-79.88941 48.41784,-79.88941 z m 103.64627,113.74025 c -4.42014,0.0983 -8.9315,2.17909 -13.03496,7.65042 -15.56287,20.75047 -33.20213,58.10219 -59.83199,59.13968 -26.62976,1.03755 -34.9294,8.99214 -62.25091,-2.07478 -27.32144,-11.06694 -35.62192,-18.67517 -39.08033,-9.33744 -3.45846,9.33772 -24.55371,8.2994 -13.14092,15.90793 11.41275,7.60853 0.6914,11.06719 9.33739,19.71326 2.29021,2.29008 4.27302,4.18018 6.5043,5.66826 14.07731,0.84818 21.89368,-3.14063 66.46859,-6.70666 45.98821,-3.67904 56.36041,-17.13684 70.64654,-26.76407 4.00751,-10.25538 9.15527,-22.82425 16.50554,-30.99118 12.45027,-13.83368 20.40328,-19.36737 41.84546,-17.29234 0,0 -11.07604,-14.47191 -23.08548,-14.90739 -0.29403,-0.01 -0.58856,-0.0126 -0.88323,-0.005 z"
       id="path852" />
    <rect
       y="249.57774"
       x="46.579712"
       height="322.83987"
       width="6.7861762"
       id="rect866"
       style="opacity:1;fill:#3f3d56;fill-opacity:1;stroke:none;stroke-width:16.13916588;stroke-linecap:round;stroke-linejoin:round;stroke-miterlimit:4;stroke-dasharray:none;stroke-dashoffset:0;stroke-opacity:1"
       ry="1.296906"
       transform="rotate(-10.575937)" />
    <rect
       style="opacity:1;fill:#2d2b3d;fill-opacity:1;stroke:none;stroke-width:3.16583943;stroke-linecap:round;stroke-linejoin:round;stroke-miterlimit:4;stroke-dasharray:none;stroke-dashoffset:0;stroke-opacity:1"
       id="rect864"
       width="10.943474"
       height="7.7032275"
       x="44.501041"
       y="255.81367"
       ry="1.8156681"
       transform="rotate(-10.575937)" />
    <rect
       ry="1.8156681"
       y="477.77481"
       x="44.291653"
       height="7.7032275"
       width="10.943474"
       id="rect868"
       style="opacity:1;fill:#2d2b3d;fill-opacity:1;stroke:none;stroke-width:3.16583943;stroke-linecap:round;stroke-linejoin:round;stroke-miterlimit:4;stroke-dasharray:none;stroke-dashoffset:0;stroke-opacity:1"
       transform="rotate(-10.575937)" />
  </g>
</svg>
